<svg width="83" height="90" viewBox="0 0 83 90" fill="none" xmlns="http://www.w3.org/2000/svg">
<path fill-rule="evenodd" clip-rule="evenodd" d="M74.0173 0C78.9774 0.00240797 82.9979 4.60081 83 10.274V79.726C82.9979 85.3992 78.9774 89.9976 74.0173 90H8.98268C4.02256 89.9976 0.00210533 85.3992 0 79.726V10.274C0.00210533 4.60081 4.02256 0.00240797 8.98268 0H74.0173ZM77.8307 84.0877C78.8413 82.931 79.409 81.3618 79.4069 79.726V10.274C79.409 8.63816 78.8413 7.06897 77.8307 5.91235C76.8195 4.75653 75.4475 4.10718 74.0173 4.10959H8.98268C7.55247 4.10718 6.18051 4.75653 5.16925 5.91235C4.1587 7.06897 3.59097 8.63816 3.59307 10.274V79.726C3.59097 81.3618 4.1587 82.931 5.16925 84.0877C6.18051 85.2435 7.55247 85.8928 8.98268 85.8904H74.0173C75.4475 85.8928 76.8195 85.2435 77.8307 84.0877ZM71.6817 8.95886C72.6726 8.96167 73.4754 9.7645 73.4782 10.7554V32.3138C73.4754 33.3047 72.6726 34.1076 71.6817 34.1104H11.318C10.3271 34.1076 9.52429 33.3047 9.52148 32.3138V10.7554C9.52429 9.7645 10.3271 8.96167 11.318 8.95886H71.6817ZM13.1146 30.5173H69.8851V12.5519H13.1146V30.5173Z" fill="white"/>
<path d="M26.5484 40H11.4516C10.6499 40 10 40.6499 10 41.4516V56.5484C10 57.3501 10.6499 58 11.4516 58H26.5484C27.3501 58 28 57.3501 28 56.5484V41.4516C28 40.6499 27.3501 40 26.5484 40ZM25.0968 55.0968H12.9032V42.9032H25.0968V55.0968Z" fill="white"/>
<path d="M49.5484 40H34.4516C33.6499 40 33 40.6499 33 41.4516V56.5484C33 57.3501 33.6499 58 34.4516 58H49.5484C50.3501 58 51 57.3501 51 56.5484V41.4516C51 40.6499 50.3501 40 49.5484 40ZM48.0968 55.0968H35.9032V42.9032H48.0968V55.0968Z" fill="white"/>
<path d="M72.5484 40H57.4516C56.6499 40 56 40.6499 56 41.4516V56.5484C56 57.3501 56.6499 58 57.4516 58H72.5484C73.3501 58 74 57.3501 74 56.5484V41.4516C74 40.6499 73.3501 40 72.5484 40ZM71.0968 55.0968H58.9032V42.9032H71.0968V55.0968Z" fill="white"/>
<path d="M26.5484 63H11.4516C10.6499 63 10 63.6499 10 64.4516V79.5484C10 80.3501 10.6499 81 11.4516 81H26.5484C27.3501 81 28 80.3501 28 79.5484V64.4516C28 63.6499 27.3501 63 26.5484 63ZM25.0968 78.0968H12.9032V65.9032H25.0968V78.0968Z" fill="white"/>
<path d="M49.5484 63H34.4516C33.6499 63 33 63.6499 33 64.4516V79.5484C33 80.3501 33.6499 81 34.4516 81H49.5484C50.3501 81 51 80.3501 51 79.5484V64.4516C51 63.6499 50.3501 63 49.5484 63ZM48.0968 78.0968H35.9032V65.9032H48.0968V78.0968Z" fill="white"/>
<path d="M72.5484 63H57.4516C56.6499 63 56 63.6499 56 64.4516V79.5484C56 80.3501 56.6499 81 57.4516 81H72.5484C73.3501 81 74 80.3501 74 79.5484V64.4516C74 63.6499 73.3501 63 72.5484 63ZM71.0968 78.0968H58.9032V65.9032H71.0968V78.0968Z" fill="white"/>
</svg>
