<svg width="105" height="95" viewBox="0 0 105 95" fill="none" xmlns="http://www.w3.org/2000/svg">
<rect x="2" y="2" width="62" height="59" rx="7" fill="#DB3C71" stroke="white" stroke-width="4"/>
<rect x="22" y="16" width="62" height="59" rx="7" fill="#DB3C71" stroke="white" stroke-width="4"/>
<rect x="41" y="34" width="62" height="59" rx="7" fill="#DB3C71" stroke="white" stroke-width="4"/>
<path fill-rule="evenodd" clip-rule="evenodd" d="M58.1601 55.84C59.0466 54.9535 60.485 54.9574 61.3666 55.8487C62.2616 56.7535 62.2339 58.2182 61.3056 59.0885L55 65L61.1279 71.1279C61.9047 71.9047 61.96 73.1459 61.2553 73.9886C60.4561 74.9446 59.009 75.009 58.1279 74.128L50.7387 66.7388C49.7785 65.7785 49.7785 64.2216 50.7387 63.2613L58.1601 55.84Z" fill="white"/>
<path fill-rule="evenodd" clip-rule="evenodd" d="M84.8399 74.1601C83.9534 75.0466 82.515 75.0427 81.6334 74.1514C80.7384 73.2467 80.7661 71.7819 81.6944 70.9116L88 65.0001L81.8721 58.8722C81.0953 58.0955 81.04 56.8542 81.7447 56.0115C82.5439 55.0555 83.991 54.9911 84.8721 55.8722L92.2613 63.2613C93.2215 64.2216 93.2215 65.7785 92.2613 66.7388L84.8399 74.1601Z" fill="white"/>
<path fill-rule="evenodd" clip-rule="evenodd" d="M68 73.9999C66.9804 73.5751 66.4982 72.4042 66.923 71.3846L72.8846 57.0769C73.3094 56.0573 74.4804 55.5751 75.5 55.9999C76.5196 56.4248 77.0017 57.5957 76.5769 58.6153L70.6153 72.923C70.1905 73.9426 69.0196 74.4248 68 73.9999Z" fill="white"/>
</svg>
