<svg width="83" height="83" viewBox="0 0 83 83" fill="none" xmlns="http://www.w3.org/2000/svg">
<path fill-rule="evenodd" clip-rule="evenodd" d="M83 11.1386C82.9979 6.17844 78.9774 2.15799 74.0173 2.15588H8.98268C4.02256 2.15799 0.00210533 6.17844 0 11.1386V71.8615C0.00210533 76.8216 4.02256 80.8421 8.98268 80.8442H74.0173C78.9774 80.8421 82.9979 76.8216 83 71.8615V11.1386ZM79.4069 71.8615C79.409 73.2917 78.8413 74.6637 77.8307 75.6749C76.8195 76.6855 75.4475 77.2532 74.0173 77.2511H8.98268C7.55247 77.2532 6.18051 76.6855 5.16925 75.6749C4.1587 74.6637 3.59097 73.2917 3.59307 71.8615V11.1386C3.59097 9.70836 4.1587 8.33639 5.16925 7.32514C6.18051 6.31459 7.55247 5.74685 8.98268 5.74896H74.0173C75.4475 5.74685 76.8195 6.31459 77.8307 7.32514C78.8413 8.33639 79.409 9.70836 79.4069 11.1386V71.8615ZM22.7619 29.8408C24.0188 29.8415 25.2532 29.5068 26.3374 28.8703L28.3494 30.8822C28.6862 31.2219 29.1466 31.41 29.6245 31.4037C30.1017 31.4016 30.5586 31.2149 30.9003 30.8822C31.2365 30.5468 31.426 30.0913 31.426 29.6162C31.426 29.1404 31.2365 28.685 30.9003 28.3495L28.8884 26.3376C30.5186 23.5628 30.0793 20.0378 27.8168 17.7486C25.5542 15.4594 22.0356 14.978 19.2418 16.5759C16.4473 18.1739 15.0775 21.4504 15.9035 24.5614C16.7288 27.6723 19.5436 29.8387 22.7619 29.8408ZM22.7619 19.2412C24.6967 19.2412 26.2651 20.8097 26.2651 22.7445C26.2651 24.6793 24.6967 26.2477 22.7619 26.2477C20.8271 26.2477 19.2586 24.6793 19.2586 22.7445C19.2572 21.8146 19.6257 20.9227 20.2825 20.2651C20.9401 19.6076 21.832 19.2391 22.7619 19.2412ZM71.6817 10.9589C72.6726 10.9617 73.4754 11.7645 73.4782 12.7554V34.3138C73.4754 35.3047 72.6726 36.1076 71.6817 36.1104H11.318C10.3271 36.1076 9.52429 35.3047 9.52148 34.3138V12.7554C9.52429 11.7645 10.3271 10.9617 11.318 10.9589H71.6817ZM13.1146 32.5173H69.8851V14.5519H13.1146V32.5173ZM23.8938 42.039C23.891 41.0481 23.0881 40.2452 22.0972 40.2424H11.318C10.3271 40.2452 9.52429 41.0481 9.52148 42.039V52.8182C9.52429 53.8091 10.3271 54.6119 11.318 54.6147H22.0972C23.0881 54.6119 23.891 53.8091 23.8938 52.8182V42.039ZM20.3007 51.0217H13.1146V43.8355H20.3007V51.0217ZM49.4049 45.632H28.2057C27.2134 45.632 26.4092 44.8278 26.4092 43.8355C26.4092 42.8432 27.2134 42.0389 28.2057 42.0389H49.4049C50.3972 42.0389 51.2014 42.8432 51.2014 43.8355C51.2014 44.8278 50.3972 45.632 49.4049 45.632ZM65.5737 49.2251H28.2057C27.2134 49.2251 26.4092 50.0293 26.4092 51.0216C26.4092 52.0139 27.2134 52.8182 28.2057 52.8182H65.5737C66.566 52.8182 67.3702 52.0139 67.3702 51.0216C67.3702 50.0293 66.566 49.2251 65.5737 49.2251ZM22.0972 57.3094C23.0881 57.3123 23.891 58.1151 23.8938 59.106V69.8852C23.891 70.8761 23.0881 71.6789 22.0972 71.6817H11.318C10.3271 71.6789 9.52429 70.8761 9.52148 69.8852V59.106C9.52429 58.1151 10.3271 57.3123 11.318 57.3094H22.0972ZM13.1146 68.0887H20.3007V60.9025H13.1146V68.0887ZM28.2057 62.6992H49.4049C50.3972 62.6992 51.2014 61.8949 51.2014 60.9026C51.2014 59.9103 50.3972 59.1061 49.4049 59.1061H28.2057C27.2134 59.1061 26.4092 59.9103 26.4092 60.9026C26.4092 61.8949 27.2134 62.6992 28.2057 62.6992ZM28.2057 66.2922H65.5737C66.566 66.2922 67.3702 67.0965 67.3702 68.0888C67.3702 69.0811 66.566 69.8853 65.5737 69.8853H28.2057C27.2134 69.8853 26.4092 69.0811 26.4092 68.0888C26.4092 67.0965 27.2134 66.2922 28.2057 66.2922Z" fill="white"/>
</svg>
