<svg width="83" height="83" viewBox="0 0 83 83" fill="none" xmlns="http://www.w3.org/2000/svg">
<path fill-rule="evenodd" clip-rule="evenodd" d="M83 11.1386C82.9979 6.17844 78.9774 2.15799 74.0173 2.15588H8.98268C4.02256 2.15799 0.00210533 6.17844 0 11.1386V71.8615C0.00210533 76.8216 4.02256 80.8421 8.98268 80.8442H74.0173C78.9774 80.8421 82.9979 76.8216 83 71.8615V11.1386ZM79.4069 71.8615C79.409 73.2917 78.8413 74.6637 77.8307 75.6749C76.8195 76.6855 75.4475 77.2532 74.0173 77.2511H8.98268C7.55247 77.2532 6.18051 76.6855 5.16925 75.6749C4.1587 74.6637 3.59097 73.2917 3.59307 71.8615V11.1386C3.59097 9.70836 4.1587 8.33639 5.16925 7.32514C6.18051 6.31459 7.55247 5.74685 8.98268 5.74896H74.0173C75.4475 5.74685 76.8195 6.31459 77.8307 7.32514C78.8413 8.33639 79.409 9.70836 79.4069 11.1386V71.8615ZM22.7619 29.8408C24.0188 29.8415 25.2532 29.5068 26.3374 28.8703L28.3494 30.8822C28.6862 31.2219 29.1466 31.41 29.6245 31.4037C30.1017 31.4016 30.5586 31.2149 30.9003 30.8822C31.2365 30.5468 31.426 30.0913 31.426 29.6162C31.426 29.1404 31.2365 28.685 30.9003 28.3495L28.8884 26.3376C30.5186 23.5628 30.0793 20.0378 27.8168 17.7486C25.5542 15.4594 22.0356 14.978 19.2418 16.5759C16.4473 18.1739 15.0775 21.4504 15.9035 24.5614C16.7288 27.6723 19.5436 29.8387 22.7619 29.8408ZM22.7619 19.2412C24.6967 19.2412 26.2651 20.8097 26.2651 22.7445C26.2651 24.6793 24.6967 26.2477 22.7619 26.2477C20.8271 26.2477 19.2586 24.6793 19.2586 22.7445C19.2572 21.8146 19.6257 20.9227 20.2825 20.2651C20.9401 19.6076 21.832 19.2391 22.7619 19.2412ZM71.6817 10.9589C72.6726 10.9617 73.4754 11.7645 73.4782 12.7554V34.3138C73.4754 35.3047 72.6726 36.1076 71.6817 36.1104H11.318C10.3271 36.1076 9.52429 35.3047 9.52148 34.3138V12.7554C9.52429 11.7645 10.3271 10.9617 11.318 10.9589H71.6817ZM13.1146 32.5173H69.8851V14.5519H13.1146V32.5173ZM32.2 70C31.3443 70 30.6496 69.2626 30.6496 68.3533V56.8237H27.5496C26.6939 56.8237 26 56.0856 26 55.1763C26 46.9264 30.0558 42 36.8496 42C37.7054 42 38.4 42.7381 38.4 43.6474C38.4 48.5881 40.733 48.5881 41.5 48.5881C42.267 48.5881 44.6 48.5881 44.6 43.6474C44.6 42.7381 45.2946 42 46.1496 42C52.9435 42 57 46.9264 57 55.1763C57 56.0856 56.3061 56.8237 55.4504 56.8237H52.3504V68.3533C52.3504 69.2626 51.6557 70 50.8 70H50.4997H32.5003H32.2ZM33.7496 60V55.1763C33.7496 54.2678 33.0557 53.5296 32.2 53.5296H29.1695C29.4576 50.219 30.771 46.1061 35.3972 45.3996C35.8747 49.4944 38.0793 51.8822 41.5 51.8822C44.9207 51.8822 47.1253 49.4944 47.6021 45.3996C52.229 46.1061 53.5403 50.219 53.8305 53.5296H50.8C49.9443 53.5296 49.2504 54.2678 49.2504 55.1763V60H33.7496ZM49.0001 63.3333V66.6667H33.9999V63.3333H49.0001ZM21.3337 54H14.667C13.7469 54 13 53.2531 13 52.333V45.6663C13 44.7462 13.7469 44 14.667 44H21.3337C22.2538 44 23 44.7462 23 45.6663V52.333C23 53.2531 22.2538 54 21.3337 54ZM16.3333 50.6667H19.6667V47.3333H16.3333V50.6667ZM14.667 70H21.3337C22.2538 70 23 69.2538 23 68.3337V61.667C23 60.7469 22.2538 60 21.3337 60H14.667C13.7469 60 13 60.7469 13 61.667V68.3337C13 69.2538 13.7469 70 14.667 70ZM19.6667 66.6667H16.3333V63.3333H19.6667V66.6667ZM68.3337 54H61.667C60.7469 54 60 53.2531 60 52.333V45.6663C60 44.7462 60.7469 44 61.667 44H68.3337C69.2538 44 70 44.7462 70 45.6663V52.333C70 53.2531 69.2538 54 68.3337 54ZM63.3333 50.6667H66.6667V47.3333H63.3333V50.6667ZM61.667 70H68.3337C69.2538 70 70 69.2538 70 68.3337V61.667C70 60.7469 69.2538 60 68.3337 60H61.667C60.7469 60 60 60.7469 60 61.667V68.3337C60 69.2538 60.7469 70 61.667 70ZM66.6667 66.6667H63.3333V63.3333H66.6667V66.6667Z" fill="white"/>
</svg>
