<svg width="84" height="84" viewBox="0 0 84 84" fill="none" xmlns="http://www.w3.org/2000/svg">
<path d="M21.7908 55.1798H34.6192C35.642 55.1881 36.6525 55.4036 37.5895 55.8128C40.3669 57.0312 43.528 57.0312 46.3054 55.8128C47.2424 55.4016 48.2529 55.186 49.2757 55.1798H62.2092C64.3008 55.1798 66.0753 53.5104 66.0753 51.4195V27.2034C66.0417 25.0878 64.3248 23.3867 62.2092 23.3723H49.2757C47.7758 23.3751 46.2924 23.686 44.9174 24.286C43.0262 25.0946 40.8866 25.0946 38.9954 24.286C37.6204 23.686 36.137 23.3751 34.6371 23.3723H21.8086C19.6902 23.3806 17.97 25.0857 17.9425 27.2034V51.4195C17.9247 53.5104 19.6998 55.1798 21.7908 55.1798ZM46.3411 27.5199C47.2658 27.1107 48.2646 26.8952 49.2757 26.887H62.2092C62.3863 26.8959 62.5332 27.0284 62.5606 27.2034V51.4195C62.5606 51.5773 62.3678 51.6652 62.2092 51.6652H49.2757C47.7792 51.6659 46.2999 51.983 44.9353 52.5967C44.5522 52.7628 44.1589 52.9036 43.7573 53.0182V28.275C44.6456 28.126 45.5126 27.8727 46.3411 27.5199ZM21.4393 27.2034C21.4675 27.0284 21.6137 26.8959 21.7908 26.887H34.6192C35.6489 26.8849 36.6669 27.1004 37.6067 27.5199C38.4435 27.8864 39.3235 28.1459 40.2255 28.2928V53.0182C39.7985 52.9317 39.3853 52.7896 38.9954 52.5967C37.6149 51.9926 36.126 51.6762 34.6192 51.6652H21.7908C21.6329 51.6652 21.4393 51.5773 21.4393 51.4195V27.2034Z" fill="white"/>
<path d="M25.5342 34.6193H28.3987C29.3694 34.6193 30.1561 33.8326 30.1561 32.8619C30.1561 31.8913 29.3694 31.1046 28.3987 31.1046H25.5342C24.5635 31.1046 23.7769 31.8913 23.7769 32.8619C23.7769 33.8326 24.5635 34.6193 25.5342 34.6193Z" fill="white"/>
<path d="M25.5342 41.1213H35.5688C36.5394 41.1213 37.3261 40.3347 37.3261 39.364C37.3261 38.3934 36.5394 37.6067 35.5688 37.6067H25.5342C24.5635 37.6067 23.7769 38.3934 23.7769 39.364C23.7769 40.3347 24.5635 41.1213 25.5342 41.1213Z" fill="white"/>
<path d="M25.5342 47.4478H35.5688C36.5394 47.4478 37.3261 46.6611 37.3261 45.6904C37.3261 44.7198 36.5394 43.9331 35.5688 43.9331H25.5342C24.5635 43.9331 23.7769 44.7198 23.7769 45.6904C23.7769 46.6611 24.5635 47.4478 25.5342 47.4478Z" fill="white"/>
<path d="M62.9119 0H20.9997C18.6802 0.007551 16.4581 0.938383 14.8258 2.58724C13.1934 4.23542 12.2852 6.4664 12.301 8.78661V75.2134C12.2852 77.5336 13.1934 79.7646 14.8258 81.4128C16.4581 83.0616 18.6802 83.9924 20.9997 84H62.9997C65.333 83.9993 67.5701 83.0705 69.2183 81.4196C70.8665 79.768 71.7905 77.5288 71.7863 75.1955L71.6985 8.76876C71.6834 3.92583 67.7555 0.00617808 62.9119 0V0ZM20.9997 3.51464H62.9119C65.8204 3.52288 68.1756 5.87879 68.1838 8.78661V11.5983H15.8156V8.78661C15.8156 5.86918 18.1001 3.51464 20.9997 3.51464ZM68.2017 15.113L68.2717 65.1966H15.8156V15.113H68.2017ZM66.7258 78.9388C65.7407 79.9321 64.3987 80.4895 62.9997 80.4854H20.9997C18.1001 80.4854 15.8156 78.1308 15.8156 75.2134V68.7113H68.2545V75.1784C68.2765 76.5877 67.7246 77.9448 66.7258 78.9388Z" fill="white"/>
<path d="M42.0001 69.59C39.3312 69.59 37.1675 71.7537 37.1675 74.4226C37.1675 77.0915 39.3312 79.2552 42.0001 79.2552C44.669 79.2552 46.8327 77.0915 46.8327 74.4226C46.8334 73.141 46.3248 71.9109 45.4186 71.0047C44.5118 70.0979 43.2824 69.5893 42.0001 69.59ZM42.0001 75.7406C41.2725 75.7406 40.6821 75.1502 40.6821 74.4226C40.6821 73.695 41.2725 73.1046 42.0001 73.1046C42.7284 73.1046 43.3181 73.695 43.3181 74.4226C43.3133 75.1482 42.7257 75.7351 42.0001 75.7406Z" fill="white"/>
</svg>
