<svg width="79" height="90" viewBox="0 0 79 90" fill="none" xmlns="http://www.w3.org/2000/svg">
<path fill-rule="evenodd" clip-rule="evenodd" d="M46.2957 49.0208C47.3114 49.0208 48.1239 48.213 48.1239 47.2032V43.6964H52.1496C53.1653 43.6964 53.9778 42.8886 53.9778 41.8788V38.2619C53.9778 37.0318 53.6269 35.8201 52.9621 34.7736L50.1367 30.3488C49.8597 29.9266 49.7305 29.4308 49.7305 28.9351V23.1701H74.8081C75.1035 23.1701 75.3436 23.4088 75.3436 23.7026V60.4039H61.8076C60.9951 55.6304 56.8032 51.9951 51.7803 51.9951C50.7646 51.9951 49.9521 52.8029 49.9521 53.8127C49.9521 54.8225 50.7646 55.6304 51.7803 55.6304C54.7903 55.6304 57.3018 57.6499 58.0589 60.4039H50.7831C50.0373 55.3904 46.0136 51.4292 40.9774 50.7074V43.164C40.9774 42.1542 40.1648 41.3464 39.1492 41.3464C38.1335 41.3464 37.321 42.1542 37.321 43.164V50.7608C36.9285 50.8206 36.7115 50.8752 36.7115 50.8752C32.1318 51.94 28.5863 55.7038 27.8661 60.3856H20.5533C21.3104 57.6316 23.8403 55.612 26.8319 55.612C27.8476 55.612 28.6601 54.8042 28.6601 53.7944C28.6601 52.7846 27.8476 51.9767 26.8319 51.9767C21.809 51.9767 17.6171 55.612 16.8046 60.3856H3.65638V23.7026C3.65638 23.4088 3.89645 23.1701 4.19191 23.1701H29.0479V28.825C29.0479 29.3758 28.8817 29.8898 28.5678 30.3305L25.5577 34.645C24.7821 35.7466 24.3759 37.0318 24.3759 38.3721V41.8788C24.3759 42.8886 25.1884 43.6964 26.2041 43.6964L29.5281 43.7148V47.2215C29.5281 48.2313 30.3406 49.0392 31.3562 49.0392C32.3719 49.0392 33.1844 48.2313 33.1844 47.2215V43.7148L33.2029 43.6964C34.2186 43.6964 35.0311 42.8886 35.0311 41.8788C35.0311 40.869 34.2186 40.0612 33.2029 40.0612H28.0323V38.3721C28.0323 37.7846 28.2169 37.2154 28.5493 36.7197L31.5594 32.4051C32.298 31.3403 32.6858 30.1102 32.6858 28.8066V14.3941C32.6858 13.0722 33.166 11.787 34.0154 10.7956L39.3707 4.60832L44.726 10.7772C45.594 11.787 46.0741 13.0722 46.0741 14.3941V28.9168C46.0741 30.1102 46.4065 31.2668 47.0528 32.2766L49.8782 36.7013C50.1737 37.1603 50.3214 37.6928 50.3214 38.2436V40.0428H45.4093C44.3936 40.0428 43.5811 40.8507 43.5811 41.8605C43.5811 42.5214 43.932 43.0906 44.4675 43.4027V47.2032C44.4675 48.213 45.2985 49.0208 46.2957 49.0208ZM49.7305 14.4125V19.5349H74.8081C77.1164 19.5349 79 21.4076 79 23.7026V72.0257C79 74.3207 77.1164 76.1934 74.8081 76.1934H41.3282V86.3647H55.6029C56.6185 86.3647 57.4311 87.1726 57.4495 88.1824C57.4495 89.1921 56.637 90 55.6213 90H23.3972C22.3815 90 21.569 89.1921 21.569 88.1824C21.569 87.1726 22.3815 86.3647 23.3972 86.3647H37.6718V76.1934H4.19191C1.88359 76.1934 0 74.3207 0 72.0257V63.1823V62.1114V23.7026C0 21.4076 1.88359 19.5349 4.19191 19.5349H29.0479V14.3941C29.0479 12.2093 29.842 10.0979 31.2639 8.42717L37.9488 0.642595C38.2997 0.238678 38.7983 0 39.3338 0C39.8693 0 40.3679 0.220318 40.7188 0.624235L47.4776 8.40881C48.9364 10.0796 49.7305 12.2093 49.7305 14.4125ZM3.65638 64.0392H75.3436V72.0441C75.3436 72.3378 75.1035 72.5765 74.8081 72.5765H4.19191C3.89645 72.5765 3.65638 72.3378 3.65638 72.0441V64.0392ZM39.3338 54.2166C43.1194 54.2166 46.2772 56.8605 47.0713 60.3856H31.5963C32.3719 56.8605 35.5482 54.2166 39.3338 54.2166Z" fill="white"/>
</svg>
