<svg width="104" height="104" viewBox="0 0 104 104" fill="none" xmlns="http://www.w3.org/2000/svg">
<path d="M39.8666 34.6667H36.3999V38.1334H39.8666V34.6667Z" fill="white"/>
<path d="M39.8666 41.6001H36.3999V45.0668H39.8666V41.6001Z" fill="white"/>
<path d="M39.8666 48.5334H36.3999V52.0001H39.8666V48.5334Z" fill="white"/>
<path d="M39.8666 55.4666H36.3999V58.9332H39.8666V55.4666Z" fill="white"/>
<path d="M46.8002 34.6667H43.3335V38.1334H46.8002V34.6667Z" fill="white"/>
<path d="M46.8002 41.6001H43.3335V45.0668H46.8002V41.6001Z" fill="white"/>
<path d="M46.8002 48.5334H43.3335V52.0001H46.8002V48.5334Z" fill="white"/>
<path d="M46.8002 55.4666H43.3335V58.9332H46.8002V55.4666Z" fill="white"/>
<path d="M53.7333 34.6667H50.2666V38.1334H53.7333V34.6667Z" fill="white"/>
<path d="M53.7333 41.6001H50.2666V45.0668H53.7333V41.6001Z" fill="white"/>
<path d="M53.7333 48.5334H50.2666V52.0001H53.7333V48.5334Z" fill="white"/>
<path d="M53.7333 55.4666H50.2666V58.9332H53.7333V55.4666Z" fill="white"/>
<path d="M60.6669 34.6667H57.2002V38.1334H60.6669V34.6667Z" fill="white"/>
<path d="M46.8002 27.7334H43.3335V31.2001H46.8002V27.7334Z" fill="white"/>
<path d="M53.7333 27.7334H50.2666V31.2001H53.7333V27.7334Z" fill="white"/>
<path d="M60.6669 27.7334H57.2002V31.2001H60.6669V27.7334Z" fill="white"/>
<path d="M60.6669 41.6001H57.2002V45.0668H60.6669V41.6001Z" fill="white"/>
<path d="M60.6669 48.5334H57.2002V52.0001H60.6669V48.5334Z" fill="white"/>
<path d="M60.6669 55.4666H57.2002V58.9332H60.6669V55.4666Z" fill="white"/>
<path d="M67.6 34.6667H64.1333V38.1334H67.6V34.6667Z" fill="white"/>
<path d="M67.6 41.6001H64.1333V45.0668H67.6V41.6001Z" fill="white"/>
<path d="M67.6 48.5334H64.1333V52.0001H67.6V48.5334Z" fill="white"/>
<path d="M67.6 55.4666H64.1333V58.9332H67.6V55.4666Z" fill="white"/>
<path d="M102.269 26C102.268 26 102.267 26 102.267 26H76.2667V1.73333C76.2673 0.776534 75.4921 0.000650408 74.5353 4.08449e-07C74.5346 4.08449e-07 74.534 4.08449e-07 74.5333 4.08449e-07H29.4667C28.5099 -0.000649592 27.734 0.774584 27.7333 1.73138C27.7333 1.73203 27.7333 1.73268 27.7333 1.73333V26H1.73333C0.776534 25.9993 0.000650408 26.7746 4.08449e-07 27.7314C4.08449e-07 27.732 4.08449e-07 27.7327 4.08449e-07 27.7333V90.1333C-0.000649592 91.0901 0.774584 91.866 1.73138 91.8667C1.73203 91.8667 1.73268 91.8667 1.73333 91.8667H5.35665C5.25612 92.4391 5.20368 93.0189 5.2 93.6V102.267C5.19935 103.223 5.97458 103.999 6.93138 104C6.93203 104 6.93268 104 6.93333 104H97.0667C98.0235 104.001 98.7994 103.225 98.8 102.269C98.8 102.268 98.8 102.267 98.8 102.267V93.6C98.7965 93.0189 98.7441 92.4391 98.6434 91.8667H102.267C103.223 91.8673 103.999 91.0921 104 90.1353C104 90.1346 104 90.134 104 90.1333V27.7333C104.001 26.7765 103.225 26.0007 102.269 26ZM74.5333 74.5333C74.5333 76.448 72.9814 78 71.0667 78C69.152 78 67.6 76.448 67.6 74.5333C67.6 72.6187 69.152 71.0667 71.0667 71.0667C72.9803 71.0691 74.531 72.6197 74.5333 74.5333ZM32.9333 71.0667C34.848 71.0667 36.4 72.6187 36.4 74.5333C36.4 76.448 34.848 78 32.9333 78C31.0187 78 29.4667 76.448 29.4667 74.5333C29.469 72.6197 31.0197 71.0691 32.9333 71.0667ZM22.5333 100.533H8.66667V93.6C8.66667 89.7709 11.7709 86.6667 15.6 86.6667C19.4291 86.6667 22.5333 89.7709 22.5333 93.6V100.533ZM12.1333 79.7333C12.1333 77.8186 13.6853 76.2667 15.6 76.2667C17.5147 76.2667 19.0667 77.8186 19.0667 79.7333C19.0667 81.648 17.5147 83.2 15.6 83.2C13.6864 83.1976 12.1357 81.6469 12.1333 79.7333ZM22.7959 86.1087C22.1423 85.4782 21.4093 84.9357 20.6154 84.4948C23.2592 81.7249 23.1571 77.3361 20.3873 74.6922C17.6174 72.0482 13.2286 72.1504 10.5846 74.9203C8.02728 77.5994 8.02728 81.8155 10.5846 84.4946C8.93013 85.4128 7.5556 86.7624 6.60703 88.3998H3.46667V29.4667H27.7333V69.9955C25.353 72.6663 25.4334 76.7206 27.9179 79.2948C25.3179 80.7328 23.4548 83.2115 22.7959 86.1087ZM39.8667 100.533H26V88.4C26 84.5709 29.1042 81.4667 32.9333 81.4667C36.7625 81.4667 39.8667 84.5709 39.8667 88.4V100.533ZM60.6667 100.533H43.3333V88.4C43.3333 83.6136 47.2136 79.7333 52 79.7333C56.7864 79.7333 60.6667 83.6136 60.6667 88.4V100.533ZM46.8 71.0667C46.8 68.1947 49.1281 65.8667 52 65.8667C54.8719 65.8667 57.2 68.1947 57.2 71.0667C57.2 73.9386 54.8719 76.2667 52 76.2667C49.1294 76.2636 46.803 73.9373 46.8 71.0667ZM62.5564 82.4406C61.3957 80.3944 59.6689 78.7271 57.5833 77.6393C61.2443 74.5556 61.7123 69.0881 58.6289 65.4271C55.5453 61.766 50.0777 61.298 46.4167 64.3814C42.7557 67.465 42.2877 72.9326 45.3711 76.5936C45.6892 76.9713 46.0389 77.321 46.4167 77.6393C44.3311 78.7271 42.6043 80.3944 41.4436 82.4406C40.5323 81.1406 39.3371 80.0648 37.9487 79.2948C40.6061 76.5763 40.5567 72.218 37.838 69.5606C36.0876 67.8494 33.5602 67.1968 31.2 67.8461V3.46667H72.8V67.8461C72.2352 67.6903 71.6525 67.6076 71.0667 67.6C67.2477 67.5898 64.1435 70.6775 64.1333 74.4967C64.1286 76.2838 64.816 78.0035 66.0513 79.2948C64.6629 80.0648 63.4677 81.1406 62.5564 82.4406ZM78 93.6V100.533H64.1333V88.4C64.1333 84.5709 67.2375 81.4667 71.0667 81.4667C74.8958 81.4667 78 84.5709 78 88.4V93.6ZM95.3333 100.533H81.4667V93.6C81.4667 89.7709 84.5709 86.6667 88.4 86.6667C92.2291 86.6667 95.3333 89.7709 95.3333 93.6V100.533ZM84.9333 79.7333C84.9333 77.8186 86.4853 76.2667 88.4 76.2667C90.3147 76.2667 91.8667 77.8186 91.8667 79.7333C91.8667 81.648 90.3147 83.2 88.4 83.2C86.4864 83.1976 84.9357 81.6469 84.9333 79.7333ZM100.533 88.4H97.393C96.4444 86.7626 95.0699 85.413 93.4154 84.4948C96.0592 81.7249 95.9571 77.3361 93.1872 74.6922C90.4174 72.0484 86.0286 72.1504 83.3846 74.9203C80.8273 77.5994 80.8273 81.8155 83.3846 84.4946C82.5907 84.9355 81.8575 85.478 81.2041 86.1085C80.5454 83.2113 78.6821 80.7326 76.0821 79.2946C78.5666 76.7204 78.6472 72.6661 76.2669 69.9952V29.4667H100.534V88.4H100.533Z" fill="white"/>
<path d="M84.9335 39.8667H81.4668V67.6H84.9335V39.8667Z" fill="white"/>
<path d="M95.3334 39.8667H91.8667V67.6H95.3334V39.8667Z" fill="white"/>
<path d="M12.1332 39.8667H8.6665V67.6H12.1332V39.8667Z" fill="white"/>
<path d="M22.5336 39.8667H19.0669V67.6H22.5336V39.8667Z" fill="white"/>
<path d="M62.402 6.93335C62.4013 6.93335 62.4007 6.93335 62.4 6.93335H41.6C40.6432 6.9327 39.8673 7.70793 39.8667 8.66473C39.8667 8.66538 39.8667 8.66603 39.8667 8.66668V22.5333C39.866 23.4901 40.6413 24.266 41.5981 24.2667C41.5987 24.2667 41.5994 24.2667 41.6 24.2667H62.4C63.3568 24.2673 64.1327 23.4921 64.1334 22.5353C64.1334 22.5346 64.1334 22.534 64.1334 22.5333V8.66668C64.134 7.70988 63.3588 6.934 62.402 6.93335ZM60.6667 20.8H43.3334V10.4H60.6667V20.8Z" fill="white"/>
</svg>
