<svg width="109" height="109" viewBox="0 0 109 109" fill="none" xmlns="http://www.w3.org/2000/svg">
<g>
<path d="M39.9664 72.6504C37.176 72.6504 34.6891 74.2782 33.4864 76.6798C32.6381 76.4181 31.7605 76.2838 30.8832 76.2838C25.8747 76.2838 21.7998 80.3585 21.7998 85.3672C21.7998 86.3699 22.6137 87.1838 23.6164 87.1838C24.6191 87.1838 25.433 86.3699 25.433 85.3672C25.433 82.3625 27.8783 79.9172 30.883 79.9172C31.8459 79.9172 32.7813 80.1842 33.6625 80.7111C34.1858 81.0236 34.8287 81.0525 35.3773 80.7892C35.9259 80.5276 36.3074 80.0081 36.3928 79.405C36.6453 77.6265 38.1822 76.284 39.9662 76.284C41.8428 76.284 43.3869 77.7065 43.5577 79.5904C43.6266 80.3626 44.1772 81.0038 44.9274 81.1909C45.6795 81.3781 46.4662 81.0692 46.8894 80.4188C48.5753 77.83 51.422 76.284 54.4994 76.284C57.5769 76.284 60.4235 77.83 62.1094 80.4188C62.5326 81.0692 63.3211 81.3781 64.0714 81.1909C64.8216 81.0038 65.3721 80.3626 65.4411 79.5904C65.6118 77.7065 67.1559 76.284 69.0326 76.284C70.8166 76.284 72.3535 77.6265 72.6059 79.405C72.6913 80.0081 73.0728 80.5278 73.6214 80.7892C74.172 81.0525 74.8149 81.0236 75.3363 80.7111C76.2174 80.1842 77.1529 79.9172 78.1158 79.9172C81.1205 79.9172 83.5658 82.3625 83.5658 85.3672C83.5658 86.3699 84.3796 87.1838 85.3824 87.1838C86.3851 87.1838 87.199 86.3699 87.199 85.3672C87.199 80.3587 83.1242 76.2838 78.1155 76.2838C77.238 76.2838 76.3607 76.4181 75.5123 76.6798C74.3097 74.2782 71.8227 72.6504 69.0324 72.6504C66.5073 72.6504 64.2836 73.9256 62.9865 75.9004C60.683 73.8275 57.68 72.6504 54.499 72.6504C51.3179 72.6504 48.3151 73.8277 46.0114 75.9004C44.7151 73.9256 42.4917 72.6504 39.9664 72.6504Z" fill="white"/>
<path d="M61.7666 29.0505C61.7666 25.0429 58.5074 21.7839 54.5 21.7839C50.4923 21.7839 47.2334 25.0431 47.2334 29.0505C47.2334 33.058 50.4923 36.3171 54.5 36.3171C58.5077 36.3171 61.7666 33.058 61.7666 29.0505ZM54.5 32.6837C52.4963 32.6837 50.8666 31.0543 50.8666 29.0503C50.8666 27.0466 52.4961 25.4169 54.5 25.4169C56.5037 25.4169 58.1334 27.0464 58.1334 29.0503C58.1334 31.0543 56.5037 32.6837 54.5 32.6837Z" fill="white"/>
<path d="M52.6836 52.6672V67.2006C52.6836 68.2033 53.4975 69.0172 54.5002 69.0172C55.5029 69.0172 56.3168 68.2033 56.3168 67.2006V52.6672C56.3168 51.6645 55.5029 50.8506 54.5002 50.8506C53.4975 50.8506 52.6836 51.6643 52.6836 52.6672Z" fill="white"/>
<path d="M5.45011 94.4503C6.45282 94.4503 7.26671 93.6364 7.26671 92.6337V38.1337C7.26671 35.4849 10.0679 32.6837 12.7167 32.6837H34.5167C35.5194 32.6837 36.3333 31.8698 36.3333 30.8671C36.3333 29.8644 35.5194 29.0505 34.5167 29.0505H12.7167C8.0478 29.0505 3.6333 33.465 3.6333 38.1339V92.6339C3.63351 93.6364 4.44739 94.4503 5.45011 94.4503Z" fill="white"/>
<path d="M107.183 90.8171H105.367V38.1337C105.367 33.4648 100.952 29.0503 96.2834 29.0503H74.4834C73.4807 29.0503 72.6668 29.8642 72.6668 30.8669C72.6668 31.8696 73.4807 32.6835 74.4834 32.6835H96.2834C98.9322 32.6835 101.733 35.4847 101.733 38.1335V92.6335C101.733 93.6362 102.547 94.4501 103.55 94.4501H105.367V99.9001C105.367 102.549 102.565 105.35 99.9166 105.35H9.0834C7.04327 105.35 4.91415 103.69 4.04215 101.717H99.9168C100.92 101.717 101.733 100.903 101.733 99.9001C101.733 98.8974 100.92 98.0835 99.9168 98.0835H1.8166C0.813881 98.0835 0 98.8974 0 99.9001C0 104.569 4.4145 108.983 9.0834 108.983H99.9168C104.586 108.983 109 104.569 109 99.9001V92.6335C109 91.631 108.186 90.8171 107.183 90.8171Z" fill="white"/>
<path d="M32.6999 63.567C32.6999 64.5697 33.5138 65.3836 34.5165 65.3836H39.9665V67.2002C39.9665 68.2029 40.7804 69.0168 41.7831 69.0168C42.7858 69.0168 43.5997 68.2029 43.5997 67.2002V65.3836H47.2331C48.2358 65.3836 49.0497 64.5697 49.0497 63.567C49.0497 62.5643 48.2358 61.7504 47.2331 61.7504H36.3331V59.9338C36.3331 54.58 38.1661 52.3366 40.1064 49.9603C41.8231 47.8565 43.5999 45.6804 43.5999 41.7672V23.6006C43.5999 17.2586 46.5846 14.1068 46.8118 13.8632L54.4999 4.63802L62.2898 13.9756C62.4152 14.1063 65.3999 17.2584 65.3999 23.6004V41.767C65.3999 45.6801 67.1767 47.8565 68.8934 49.9601C70.8337 52.3364 72.6667 54.5798 72.6667 59.9336V61.7502H61.7667C60.764 61.7502 59.9501 62.5641 59.9501 63.5668C59.9501 64.5695 60.764 65.3834 61.7667 65.3834H65.3999V67.2C65.3999 68.2027 66.2138 69.0166 67.2165 69.0166C68.2192 69.0166 69.0331 68.2027 69.0331 67.2V65.3834H74.4831C75.4858 65.3834 76.2997 64.5695 76.2997 63.5668V59.9334C76.2997 53.2844 73.7546 50.167 71.7089 47.6617C70.1557 45.7598 69.0329 44.3845 69.0329 41.7666V23.6C69.0329 15.6721 65.038 11.5863 64.9782 11.5374L55.8948 0.637381C55.2044 -0.190976 53.7946 -0.190976 53.1044 0.637381L44.1321 11.4158C43.9614 11.5866 39.9665 15.6724 39.9665 23.6002V41.7668C39.9665 44.3847 38.8437 45.7598 37.2905 47.6619C35.2448 50.1672 32.6997 53.2846 32.6997 59.9336V63.567H32.6999Z" fill="white"/>
<path d="M36.3331 38.1335C36.3331 37.1308 35.5192 36.3169 34.5165 36.3169H18.1665C15.6795 36.3169 10.8999 38.6187 10.8999 41.7669V92.6335C10.8999 93.6362 11.7138 94.4501 12.7165 94.4501H96.2831C97.2858 94.4501 98.0997 93.6362 98.0997 92.6335V41.7669C98.0997 38.9657 95.4509 36.3169 92.6497 36.3169H74.4831C73.4804 36.3169 72.6665 37.1308 72.6665 38.1335C72.6665 39.1362 73.4804 39.9501 74.4831 39.9501H92.6497C93.4653 39.9501 94.4663 40.9511 94.4663 41.7667V90.8167H14.5331L14.5222 41.8593C14.7458 41.2198 16.9984 39.9499 18.1665 39.9499H34.5165C35.5192 39.9503 36.3331 39.1364 36.3331 38.1335Z" fill="white"/>
</g>
</svg>
