<svg width="23" height="26" viewBox="0 0 23 26" fill="none" xmlns="http://www.w3.org/2000/svg">
<path d="M16.9562 13L0.431341 22.5385C-0.0276822 22.8462 -0.104186 23.3077 0.125326 23.7692L1.11988 25.5385C1.27288 25.8462 1.5024 26 1.80841 26C1.96142 26 2.11443 25.9231 2.26744 25.8462L22.235 14.3077C22.694 14 23 13.5385 23 13C23 12.4615 22.694 12 22.235 11.6923L2.26744 0.0769263C2.11443 -3.66798e-07 1.96142 0 1.80841 0C1.5024 0 1.27288 0.153849 1.11988 0.461542L0.125326 2.23077C-0.104186 2.69231 -0.0276822 3.15385 0.431341 3.38462L16.9562 13Z" fill="#FFA800"/>
</svg>
