<svg width="20" height="20" viewBox="0 0 20 20" fill="none" xmlns="http://www.w3.org/2000/svg">
<path d="M20 0H0V20H20V0Z" fill="#61A8DE"/>
<path d="M15.7484 4.41479L2.37411 9.62659C1.94092 9.79542 1.96716 10.4171 2.41308 10.5487L5.81162 11.5523L7.07996 15.5769C7.21245 15.9972 7.74518 16.1247 8.05356 15.8098L9.81069 14.0157L13.2583 16.5463C13.6803 16.856 14.2811 16.6259 14.3883 16.1137L16.6717 5.1967C16.7835 4.66196 16.2574 4.21643 15.7484 4.41479ZM14.0716 6.83754L7.85932 12.331C7.7974 12.3858 7.75799 12.4616 7.74878 12.5438L7.5096 14.6699C7.50179 14.7393 7.40476 14.7484 7.38404 14.6818L6.4 11.511C6.35493 11.3658 6.41369 11.2085 6.54284 11.1284L13.8789 6.57852C14.0476 6.47381 14.2203 6.70606 14.0716 6.83754Z" fill="white"/>
</svg>
