<svg width="20" height="20" viewBox="0 0 20 20" fill="none" xmlns="http://www.w3.org/2000/svg">
<path d="M20 0H0V20H20V0Z" fill="#1BD741"/>
<path d="M3.00586 17.0019L3.98552 13.5225C3.35554 12.4523 3.02385 11.2346 3.02385 9.98367C3.02385 6.13205 6.15737 2.99854 10.009 2.99854C13.8606 2.99854 16.9941 6.13205 16.9941 9.98367C16.9941 13.8353 13.8606 16.9688 10.009 16.9688C8.80885 16.9688 7.63368 16.6616 6.59408 16.0783L3.00586 17.0019ZM6.77752 14.8075L6.99133 14.938C7.89774 15.4914 8.94125 15.7839 10.009 15.7839C13.2072 15.7839 15.8092 13.1819 15.8092 9.98367C15.8092 6.78542 13.2072 4.18345 10.009 4.18345C6.81074 4.18345 4.20876 6.78542 4.20876 9.98367C4.20876 11.0981 4.52549 12.1802 5.12461 13.1132L5.2686 13.3374L4.70445 15.3411L6.77752 14.8075Z" fill="white"/>
<path d="M8.04693 6.73256L7.59368 6.70785C7.45132 6.70008 7.31167 6.74766 7.20407 6.84113C6.98433 7.03195 6.63298 7.40085 6.52507 7.88157C6.36414 8.59835 6.61284 9.47606 7.25651 10.3538C7.90018 11.2315 9.0997 12.6358 11.2208 13.2356C11.9043 13.4289 12.442 13.2986 12.8569 13.0332C13.1854 12.823 13.4119 12.4857 13.4936 12.1043L13.5659 11.7663C13.5889 11.6589 13.5344 11.5499 13.4346 11.5039L11.9028 10.7978C11.8033 10.752 11.6854 10.781 11.6185 10.8676L11.0172 11.6472C10.9717 11.7061 10.894 11.7295 10.8237 11.7048C10.4119 11.5601 9.03243 10.9823 8.27549 9.52425C8.24266 9.46101 8.25082 9.38426 8.29739 9.33032L8.87211 8.66545C8.93083 8.59756 8.94566 8.50211 8.91038 8.41961L8.25008 6.87479C8.21493 6.79255 8.13615 6.73743 8.04693 6.73256Z" fill="white"/>
</svg>
